<svg xmlns="http://www.w3.org/2000/svg" xmlns:xlink="http://www.w3.org/1999/xlink" width="899.477" height="718.031" viewBox="0 0 899.477 718.031">
  <defs>
    <linearGradient id="linear-gradient" x1="0.5" y1="-1.859" x2="-1.741" y2="2.399" gradientUnits="objectBoundingBox">
      <stop offset="0" stop-color="#5d3a70"/>
      <stop offset="1" stop-color="#a0154a"/>
    </linearGradient>
  </defs>
  <g id="Group_1141" data-name="Group 1141" transform="translate(-455.953 -6777.96)">
    <path id="Path_1511" data-name="Path 1511" d="M656.508,162.59s-29.575,32.075-84.283,0-177.66-22.72-200.38,77.514S149.531,392.151,162.023,482s33.753,93.476,266.806,111.474,257.734,53.107,373.4,74.045,171.022-74.594,163-130.725S922.461,461.781,862.32,431.128,830.246,367.066,883.7,309.6s85.534-129.636,46.776-179.084S816.881,77.057,656.508,162.59Z" transform="translate(425.39 6653.523) rotate(11)" fill="#752651" opacity="0.039"/>
    <g id="Group_1092" data-name="Group 1092" transform="translate(698.975 6896.111)">
      <path id="Path_101" data-name="Path 101" d="M322.8,24.4h10.929c0-.3-.075-.674-.075-.973A12.565,12.565,0,0,1,352.819,12.8a14.208,14.208,0,0,1,25.6-6.288,18.276,18.276,0,0,1,32.263,11.752,18.538,18.538,0,0,1-1.2,6.438,12.11,12.11,0,0,1,9.207,11.677h0a12.012,12.012,0,0,1-11.977,11.977H322.877A12.012,12.012,0,0,1,310.9,36.38h0A11.9,11.9,0,0,1,322.8,24.4Z" transform="translate(-76.203 6)" fill="#803160" fill-rule="evenodd"/>
      <path id="Path_102" data-name="Path 102" d="M615.515,32.187H624.2c0-.238-.059-.535-.059-.773a9.983,9.983,0,0,1,15.224-8.445,11.287,11.287,0,0,1,20.339-5,14.519,14.519,0,0,1,25.631,9.337,14.727,14.727,0,0,1-.952,5.114A9.621,9.621,0,0,1,691.7,41.7h0a9.543,9.543,0,0,1-9.515,9.515H615.515A9.543,9.543,0,0,1,606,41.7h0A9.543,9.543,0,0,1,615.515,32.187Z" transform="translate(-105.477 127.513)" fill="#37c2e3" fill-rule="evenodd"/>
      <path id="Path_103" data-name="Path 103" d="M5.949,199.758h5.39v-.479a6.194,6.194,0,0,1,6.189-6.189,6.057,6.057,0,0,1,3.274.958,7.058,7.058,0,0,1,12.7-3.114,9.068,9.068,0,0,1,16.01,5.829,8.57,8.57,0,0,1-.6,3.194,5.992,5.992,0,0,1,4.552,5.789h0a5.964,5.964,0,0,1-5.949,5.949H5.949A6.024,6.024,0,0,1,0,205.707H0A5.964,5.964,0,0,1,5.949,199.758Z" transform="translate(-37 -71.035)" fill="#37c2e3" fill-rule="evenodd"/>
    </g>
    <g id="Group_1093" data-name="Group 1093" transform="translate(675.547 7011.763)">
      <g id="Group_135" data-name="Group 135" transform="translate(79.471 0)">
        <g id="Group_134" data-name="Group 134" transform="translate(0 195.782)">
          <g id="Group_133" data-name="Group 133">
            <g id="Group_131" data-name="Group 131">
              <path id="Path_177" data-name="Path 177" d="M134.155,538.975s-2.461,4.56,15.055,8.4H515.368s12.232-.8,15.489-6.586V537.6Z" transform="translate(-133.938 -529.783)" fill="#f2e2eb"/>
              <path id="Path_178" data-name="Path 178" d="M134.19,526.8h396.7v10.205s.579,1.375-4.053,1.013H137.881s-3.619,1.013-3.981-1.375Z" transform="translate(-133.9 -526.8)" fill="#fff"/>
              <path id="Path_179" data-name="Path 179" d="M651.32,534.724a.715.715,0,0,1-.579.724H637.279a.662.662,0,0,1-.579-.724h0a.662.662,0,0,1,.579-.724h13.462c.362,0,.579.29.579.724Z" transform="translate(-272.785 -528.789)" fill="#b0b0b0"/>
            </g>
            <path id="Path_180" data-name="Path 180" d="M371.018,526.9s-1.52,5.066,3.547,5.573H420.6s4.922.651,4.27-5.428Z" transform="translate(-199.338 -526.828)" fill="#f2e2eb"/>
          </g>
        </g>
        <path id="Path_182" data-name="Path 182" d="M506.8,452.009V271.21a14.982,14.982,0,0,0-14.91-14.91H202.81a14.982,14.982,0,0,0-14.91,14.91v180.8Z" transform="translate(-148.816 -256.3)" fill="#803160"/>
        <rect id="Rectangle_176" data-name="Rectangle 176" width="298.413" height="173.417" transform="translate(49.289 11.146)" fill="#fff"/>
      </g>
      <g id="Group_149" data-name="Group 149" transform="translate(-45 91.7)">
        <path id="Path_183" data-name="Path 183" d="M136.43,420.3l28.3,17.371v35.1l-28.3,17.443H24.1V420.3Z" transform="translate(-24.1 -420.3)" fill="#37c2e3"/>
        <g id="Group_145" data-name="Group 145" transform="translate(11.508 7.889)">
          <g id="Group_144" data-name="Group 144">
            <g id="Group_136" data-name="Group 136" transform="translate(0 51.243)">
              <path id="Path_184" data-name="Path 184" d="M40,504.9h2.823v-2.461h-.362V502H40Z" transform="translate(-40 -502)" fill="#fff"/>
            </g>
            <g id="Group_137" data-name="Group 137" transform="translate(6.08 51.678)">
              <path id="Path_185" data-name="Path 185" d="M48.472,502.6h3.257v2.461H48.4V502.6Zm6.586,0h3.329v2.461H55.059Zm6.586,0h3.329v2.461H61.645Zm6.586,0h3.329v2.461H68.232Zm6.586,0h3.329v2.461H74.818Zm6.586,0h3.329v2.461H81.4Zm6.586,0H91.32v2.461H87.991Zm6.586,0h3.329v2.461H94.577Zm6.586,0h3.329v2.461h-3.329Zm6.586,0h3.329v2.461H107.75Zm6.586,0h3.329v2.461h-3.329Zm6.586,0h3.329v2.461h-3.329Zm6.586,0h3.329v2.461h-3.329Z" transform="translate(-48.4 -502.6)" fill="#fff"/>
            </g>
            <g id="Group_138" data-name="Group 138" transform="translate(91.775 51.243)">
              <path id="Path_186" data-name="Path 186" d="M166.8,504.9h2.9V502h-2.461v.434H166.8Z" transform="translate(-166.8 -502)" fill="#fff"/>
            </g>
            <g id="Group_139" data-name="Group 139" transform="translate(92.209 6.08)">
              <path id="Path_187" data-name="Path 187" d="M167.4,478.322h2.461v3.257H167.4Zm0-6.442h2.461v3.257H167.4Zm0-6.442h2.461V468.7H167.4Zm0-6.442h2.461v3.257H167.4Zm0-6.514h2.461v3.257H167.4Zm0-6.442h2.461V449.3H167.4Zm0-6.442h2.461v3.257H167.4Z" transform="translate(-167.4 -439.6)" fill="#fff"/>
            </g>
            <g id="Group_140" data-name="Group 140" transform="translate(91.775)">
              <path id="Path_188" data-name="Path 188" d="M167.234,434.1H169.7v-2.9h-2.9v2.461h.434Z" transform="translate(-166.8 -431.2)" fill="#fff"/>
            </g>
            <g id="Group_141" data-name="Group 141" transform="translate(6.08)">
              <path id="Path_189" data-name="Path 189" d="M48.472,431.2h3.257v2.461H48.4V431.2Zm6.586,0h3.329v2.461H55.059Zm6.586,0h3.329v2.461H61.645Zm6.586,0h3.329v2.461H68.232Zm6.586,0h3.329v2.461H74.818Zm6.586,0h3.329v2.461H81.4Zm6.586,0H91.32v2.461H87.991Zm6.586,0h3.329v2.461H94.577Zm6.586,0h3.329v2.461h-3.329Zm6.586,0h3.329v2.461H107.75Zm6.586,0h3.329v2.461h-3.329Zm6.586,0h3.329v2.461h-3.329Zm6.586,0h3.329v2.461h-3.329Z" transform="translate(-48.4 -431.2)" fill="#fff"/>
            </g>
            <g id="Group_142" data-name="Group 142">
              <path id="Path_190" data-name="Path 190" d="M40,434.1h2.461v-.434h.362V431.2H40Z" transform="translate(-40 -431.2)" fill="#fff"/>
            </g>
            <g id="Group_143" data-name="Group 143" transform="translate(0 6.08)">
              <path id="Path_191" data-name="Path 191" d="M40,478.322h2.461v3.257H40Zm0-6.442h2.461v3.257H40Zm0-6.442h2.461V468.7H40ZM40,459h2.461v3.257H40Zm0-6.514h2.461v3.257H40Zm0-6.442h2.461V449.3H40Zm0-6.442h2.461v3.257H40Z" transform="translate(-40 -439.6)" fill="#fff"/>
            </g>
          </g>
        </g>
        <g id="Group_146" data-name="Group 146" transform="translate(46.322 19.035)">
          <path id="Path_192" data-name="Path 192" d="M97.428,458.87a5.02,5.02,0,0,0,3.836-1.737,5.847,5.847,0,0,0,1.592-4.2,5.966,5.966,0,0,0-1.592-4.2A5.131,5.131,0,0,0,97.428,447a5.02,5.02,0,0,0-3.836,1.737,5.847,5.847,0,0,0-1.592,4.2,5.967,5.967,0,0,0,1.592,4.2A5.4,5.4,0,0,0,97.428,458.87Zm0-8.613a1.792,1.792,0,0,1,1.52.8,3.044,3.044,0,0,1,0,3.764,1.832,1.832,0,0,1-1.592.8,2.023,2.023,0,0,1-1.592-.8,2.835,2.835,0,0,1-.651-1.882,2.974,2.974,0,0,1,.651-1.882A2.046,2.046,0,0,1,97.428,450.257Z" transform="translate(-89.177 -446.711)" fill="#fff"/>
          <path id="Path_193" data-name="Path 193" d="M109.328,474a4.861,4.861,0,0,0-3.836,1.809,6.307,6.307,0,0,0-1.592,4.2,5.677,5.677,0,0,0,1.592,4.126,5.02,5.02,0,0,0,3.836,1.737,5.131,5.131,0,0,0,3.836-1.737,5.794,5.794,0,0,0,1.592-4.126,5.967,5.967,0,0,0-1.592-4.2A4.761,4.761,0,0,0,109.328,474Zm0,3.257a1.792,1.792,0,0,1,1.52.8,3.044,3.044,0,0,1,0,3.764,2,2,0,0,1-1.52.8,1.637,1.637,0,0,1-1.52-.8,2.974,2.974,0,0,1-.651-1.882,2.835,2.835,0,0,1,.651-1.882A2,2,0,0,1,109.328,477.257Z" transform="translate(-92.464 -454.169)" fill="#fff"/>
          <path id="Path_194" data-name="Path 194" d="M109.958,446.6,88.1,476.347l3.329,2.1L113.215,448.7Z" transform="translate(-88.1 -446.6)" fill="#fff"/>
        </g>
        <path id="Path_195" data-name="Path 195" d="M193.4,466.887a4.51,4.51,0,0,0,4.487,4.487h0a4.51,4.51,0,0,0,4.487-4.487h0a4.51,4.51,0,0,0-4.487-4.487h0a4.464,4.464,0,0,0-4.487,4.487Z" transform="translate(-70.864 -431.929)" fill="#fff"/>
        <path id="Path_196" data-name="Path 196" d="M61.677,565.4h41.038c8.83,0,16-6.3,16-14.114V548.68c0-7.744-7.165-14.114-16-14.114H95.261c-9.843,0-17.8-7.165-17.8-15.923v-2.606c0-8.758,7.962-15.923,17.8-15.923h88.518c8.83,0,16-6.3,16-14.114V483.4c0-7.744-7.165-14.114-16-14.114h-25.26V467.4h25.26c9.843,0,17.8,7.165,17.8,15.923v2.606c0,8.758-7.962,15.923-17.8,15.923H95.261c-8.83,0-16,6.3-16,14.114v2.606c0,7.744,7.165,14.114,16,14.114h7.455c9.843,0,17.8,7.165,17.8,15.923v2.606c0,8.758-7.962,15.923-17.8,15.923H61.677c-8.83,0-16,6.3-16,14.114v2.606c0,7.744,7.165,14.114,16,14.114l296.17.072c9.843,0,17.8,7.165,17.8,15.923v2.606c0,8.758-7.962,15.923-17.8,15.923H269.329c-8.83,0-16,6.3-16,14.114v1.375h-1.882v-1.375c0-8.758,7.962-15.923,17.8-15.923h88.518c8.83,0,16-6.3,16-14.114v-2.533c0-7.744-7.165-14.114-16-14.114L61.6,599.851c-9.843,0-17.8-7.165-17.8-15.923v-2.606C43.8,572.565,51.834,565.4,61.677,565.4Z" transform="translate(-29.542 -433.31)" fill="#752d62"/>
        <g id="Group_148" data-name="Group 148" transform="translate(199.69 214.166)">
          <g id="Group_147" data-name="Group 147" transform="translate(0)">
            <path id="Path_197" data-name="Path 197" d="M300,773.6c0,11,9.264,19.976,20.772,19.976h4.7c11.436,0,20.772-8.9,20.772-19.976V736.176c0-11-9.264-19.976-20.772-19.976h-4.7c-11.436,0-20.772,8.9-20.772,19.976Z" transform="translate(-300 -716.2)" fill="#fff" stroke="#d9c4d0" stroke-width="1"/>
            <path id="Path_198" data-name="Path 198" d="M346.177,742.9v1.592H300V742.9Z" transform="translate(-300 -723.575)" fill="#d9c4d0"/>
          </g>
          <path id="Path_199" data-name="Path 199" d="M330.8,736.566V716.3h1.592v20.266Z" transform="translate(-308.508 -716.228)" fill="#d9c4d0"/>
          <ellipse id="Ellipse_44" data-name="Ellipse 44" cx="2.678" cy="3.402" rx="2.678" ry="3.402" transform="translate(20.411 8.975)" fill="#d9c4d0"/>
        </g>
      </g>
      <g id="Group_151" data-name="Group 151" transform="translate(80.05 10.567)">
        <path id="Path_203" data-name="Path 203" d="M134.7,339a21.963,21.963,0,0,0,43.861,0Z" transform="translate(-134.7 -289.711)" fill="#803160"/>
        <path id="Path_204" data-name="Path 204" d="M183.121,270.9,134.7,320.189h43.933L216.342,270.9Z" transform="translate(-134.7 -270.9)" fill="url(#linear-gradient)"/>
        <path id="Path_205" data-name="Path 205" d="M233.109,270.9,195.4,320.189h44.006L266.33,270.9Z" transform="translate(-151.467 -270.9)" fill="#f4f4f4"/>
        <path id="Path_206" data-name="Path 206" d="M195.5,339a21.963,21.963,0,0,0,43.861,0Z" transform="translate(-151.494 -289.711)" fill="#e6e7e8"/>
        <path id="Path_207" data-name="Path 207" d="M256.3,339a21.963,21.963,0,0,0,43.861,0Z" transform="translate(-168.289 -289.711)" fill="#803160"/>
        <path id="Path_208" data-name="Path 208" d="M283.125,270.9,256.2,320.189h44.006l16.14-49.289Z" transform="translate(-168.261 -270.9)" fill="url(#linear-gradient)"/>
        <path id="Path_209" data-name="Path 209" d="M333.14,270.9,317,320.189h44.006l5.356-49.289Z" transform="translate(-185.055 -270.9)" fill="#f4f4f4"/>
        <path id="Path_210" data-name="Path 210" d="M317.1,339a21.963,21.963,0,0,0,43.861,0Z" transform="translate(-185.083 -289.711)" fill="#e6e7e8"/>
        <path id="Path_211" data-name="Path 211" d="M377.9,339a21.963,21.963,0,0,0,43.861,0Z" transform="translate(-201.877 -289.711)" fill="#803160"/>
        <path id="Path_212" data-name="Path 212" d="M383.156,270.9,377.8,320.189h44.006L416.377,270.9Z" transform="translate(-201.85 -270.9)" fill="url(#linear-gradient)"/>
        <path id="Path_213" data-name="Path 213" d="M438.6,339a21.963,21.963,0,0,0,43.861,0Z" transform="translate(-218.644 -289.711)" fill="#e6e7e8"/>
        <path id="Path_214" data-name="Path 214" d="M431.1,270.9l5.428,49.289h43.933L464.321,270.9Z" transform="translate(-216.572 -270.9)" fill="#f4f4f4"/>
        <path id="Path_215" data-name="Path 215" d="M477,270.9l16.14,49.289h44.006L510.221,270.9Z" transform="translate(-229.251 -270.9)" fill="url(#linear-gradient)"/>
        <path id="Path_216" data-name="Path 216" d="M499.4,339a21.963,21.963,0,0,0,43.861,0Z" transform="translate(-235.438 -289.711)" fill="#803160"/>
        <path id="Path_217" data-name="Path 217" d="M522.9,270.9l26.924,49.289H593.83L556.121,270.9Z" transform="translate(-241.93 -270.9)" fill="#f4f4f4"/>
        <path id="Path_218" data-name="Path 218" d="M560.2,339a21.963,21.963,0,0,0,43.861,0Z" transform="translate(-252.233 -289.711)" fill="#e6e7e8"/>
        <path id="Path_219" data-name="Path 219" d="M568.8,270.9l37.709,49.289h44.006L602.021,270.9Z" transform="translate(-254.608 -270.9)" fill="url(#linear-gradient)"/>
        <path id="Path_220" data-name="Path 220" d="M621,339a21.963,21.963,0,0,0,43.861,0Z" transform="translate(-269.027 -289.711)" fill="#803160"/>
      </g>
      <g id="Group_154" data-name="Group 154" transform="translate(352.841 95.766)">
        <path id="Path_221" data-name="Path 221" d="M519.6,474.4v77.082a22.3,22.3,0,0,0,22.292,22.292H667.757a22.3,22.3,0,0,0,22.292-22.292V474.4Z" transform="translate(-513.81 -412.31)" fill="#f2e2eb"/>
        <rect id="Rectangle_178" data-name="Rectangle 178" width="182.102" height="18.963" transform="translate(0 51.812)" fill="#752651"/>
        <g id="Group_152" data-name="Group 152" transform="translate(42.92 85.54)">
          <rect id="Rectangle_179" data-name="Rectangle 179" width="8.758" height="58.264" fill="#fff"/>
          <rect id="Rectangle_180" data-name="Rectangle 180" width="8.758" height="58.264" transform="translate(29.168)" fill="#fff"/>
          <rect id="Rectangle_181" data-name="Rectangle 181" width="8.758" height="58.264" transform="translate(58.264)" fill="#fff"/>
          <rect id="Rectangle_182" data-name="Rectangle 182" width="8.758" height="58.264" transform="translate(87.432)" fill="#fff"/>
        </g>
      </g>
    </g>
  </g>
</svg>
